<svg xmlns="http://www.w3.org/2000/svg" viewBox="0 0 64 64" role="img" aria-label="Hermes Studio">
  <rect width="64" height="64" rx="14" fill="#fff"/>
  <path fill="#111" d="M15.6 38.8c-.8-5.9 1-12.6 5.3-17.4 5.2-5.8 13.9-8.1 21.8-5.8 8 2.4 13.8 8.6 15.5 16.1 1 4.6.3 9.5-1.8 13.4-1.2-3-3.1-5.8-5.7-8-2.5-2.2-5.6-3.7-8.9-4.2-6.2-1-12.4 1.8-16.1 6.7-2.4 3.2-3.7 7-3.8 10.8-3.4-2.9-5.6-7-6.3-11.6Z"/>
  <path fill="#fff" d="M24.8 40.3c2.4-3.7 6.8-6.1 11.4-6.1 3.1 0 5.7.8 7.9 2.6-2.5.2-5.2.8-7.9 1.8-5.2 1.9-9.3 5.1-11.6 9-.4-2.4-.4-4.9.2-7.3Z"/>
  <path fill="#111" d="M28.1 45.5c1.5-1.9 4.1-3.2 6.7-3.2 1.8 0 3.5.6 4.7 1.6-1.6.1-3.3.5-5 1.1-2.7 1-4.8 2.5-6.2 4.4-.3-1.2-.4-2.5-.2-3.9Z"/>
  <path fill="#111" d="M18.7 26.6c7.8-2.7 18.2-1.8 30.2 2.7-8.4-7.1-18.5-9.2-25-5.2-2.1 1.2-3.8 3-5.2 2.5Z"/>
  <path fill="#111" d="M12.7 37c3.7 1.5 7.8 1.9 12.3 1.1-4 2-7.4 4.9-10.2 8.7-1.1-3-1.8-6.3-2.1-9.8Z"/>
</svg>
